<svg id="Layer_1" data-name="Layer 1" xmlns="http://www.w3.org/2000/svg" viewBox="0 0 473.958 106"><defs><style>.cls-2{fill:#41f9ab;}</style></defs><title>classic_ethereum_logo</title><path class="cls-2" d="M80.878,51.776l-.011,2.266a3.54,3.54,0,0,0-.521.509Q69.183,71.042,58.033,87.541l-3.021-.016q-10.048-15.2-20.106-30.4A17.058,17.058,0,0,0,32.522,53.8l.012-2.267a3.539,3.539,0,0,0,.521-.509Q44.218,34.528,55.367,18.03l3.022.015q10.048,15.2,20.106,30.4A17.156,17.156,0,0,0,80.878,51.776Zm-11.43,8.57c-3.784,1.805-7.592,3.562-11.338,5.444a2.869,2.869,0,0,1-2.953-.016c-3.726-1.919-7.516-3.716-11.282-5.558-.078-.074-.206-.222-.226-.209-.233.155-.1.271.062.376Q49.8,69.695,55.886,79.01c.489.751.862.755,1.36.008q6.171-9.26,12.366-18.5c.158-.1.3-.219.065-.375C69.656,60.127,69.527,60.274,69.448,60.346Zm.078-14.991c.078.073.2.221.226.208.233-.155.095-.271-.062-.376Q63.6,35.875,57.515,26.56c-.489-.75-.863-.754-1.36-.008q-6.171,9.26-12.366,18.5c-.159.1-.3.218-.065.375.02.014.15-.133.228-.206,3.785-1.8,7.593-3.562,11.339-5.443a2.865,2.865,0,0,1,2.952.015C61.97,41.716,65.76,43.512,69.526,45.355ZM41.285,52.707c3.657,1.847,7.11,3.23,10.164,5.226,3.629,2.373,6.779,2.412,10.439.061,3.071-1.972,6.544-3.317,10.227-5.131-3.656-1.846-7.11-3.229-10.163-5.226-3.629-2.372-6.779-2.411-10.44-.061C48.442,49.548,44.968,50.893,41.285,52.707Z"/></svg>