<svg xmlns="http://www.w3.org/2000/svg" viewBox="0 0 48 70"><defs><style>.cls-2{fill:#41f9ab;}</style></defs><title>classic_ethereum_logo</title><path class="cls-2" d="M48.35600064086914,33.745999313354496 l-0.011,2.266 a3.54,3.54 0 0 0 -0.521,0.509 Q36.66100064086915,53.011999313354494 25.511000640869142,69.51099931335449 l-3.021,-0.016 q-10.048,-15.2 -20.106,-30.4 A17.058,17.058 0 0 0 6.408691390902277e-7,35.76999931335449 l0.012,-2.267 a3.539,3.539 0 0 0 0.521,-0.509 Q11.696000640869144,16.49799931335449 22.845000640869138,-6.866455066756316e-7 l3.022,0.015 q10.048,15.2 20.106,30.4 A17.156,17.156 0 0 0 48.35600064086914,33.745999313354496 zm-11.43,8.57 c-3.784,1.805 -7.592,3.562 -11.338,5.444 a2.869,2.869 0 0 1 -2.953,-0.016 c-3.726,-1.919 -7.516,-3.716 -11.282,-5.558 c-0.078,-0.074 -0.206,-0.222 -0.226,-0.209 c-0.233,0.155 -0.1,0.271 0.062,0.376 Q17.278000640869138,51.664999313354485 23.364000640869143,60.9799993133545 c0.489,0.751 0.862,0.755 1.36,0.008 q6.171,-9.26 12.366,-18.5 c0.158,-0.1 0.3,-0.219 0.065,-0.375 C37.13400064086915,42.096999313354495 37.00500064086914,42.24399931335449 36.926000640869134,42.315999313354496 zm0.078,-14.991 c0.078,0.073 0.2,0.221 0.226,0.208 c0.233,-0.155 0.095,-0.271 -0.062,-0.376 Q31.078000640869142,17.844999313354492 24.99300064086914,8.529999313354491 c-0.489,-0.75 -0.863,-0.754 -1.36,-0.008 q-6.171,9.26 -12.366,18.5 c-0.159,0.1 -0.3,0.218 -0.065,0.375 c0.02,0.014 0.15,-0.133 0.228,-0.206 c3.785,-1.8 7.593,-3.562 11.339,-5.443 a2.865,2.865 0 0 1 2.952,0.015 C29.44800064086914,23.685999313354493 33.238000640869146,25.481999313354493 37.00400064086914,27.32499931335449 zM8.763000640869137,34.67699931335449 c3.657,1.847 7.11,3.23 10.164,5.226 c3.629,2.373 6.779,2.412 10.439,0.061 c3.071,-1.972 6.544,-3.317 10.227,-5.131 c-3.656,-1.846 -7.11,-3.229 -10.163,-5.226 c-3.629,-2.372 -6.779,-2.411 -10.44,-0.061 C15.92000064086914,31.517999313354494 12.446000640869144,32.86299931335449 8.763000640869137,34.67699931335449 z" id="svg_1"/></svg>