<?xml version="1.0" encoding="UTF-8" standalone="no"?>
<svg width="211px" height="61px" viewBox="0 0 211 61" version="1.1" xmlns="http://www.w3.org/2000/svg" xmlns:xlink="http://www.w3.org/1999/xlink">
    <!-- Generator: Sketch 41 (35326) - http://www.bohemiancoding.com/sketch -->
    <title>Page 1 Copy 4</title>
    <desc>Created with Sketch.</desc>
    <defs></defs>
    <g id="Brand-Guidelines" stroke="none" stroke-width="1" fill="none" fill-rule="evenodd">
        <g id="Desktop-HD-Copy" transform="translate(-167.000000, -319.000000)" fill="#E95424">
            <g id="Group" transform="translate(57.000000, 265.000000)">
                <g id="wordmark">
                    <g id="Page-1-Copy-4" transform="translate(110.500000, 54.000000)">
                        <path d="M42.7769335,37.0262972 L27.3186741,45.9726792 C26.7092753,46.325072 25.9583259,46.325072 25.3495918,45.9726792 L9.89066772,37.0262972 C9.28126899,36.6739043 8.90645886,36.0217444 8.90645886,35.3169587 L8.90645886,17.4241947 C8.90645886,16.7187429 9.28126899,16.0672491 9.89066772,15.7148562 L25.3495918,6.76847422 C25.9583259,6.41608137 26.7092753,6.41608137 27.3186741,6.76847422 L42.7769335,15.7148562 C43.3863323,16.0672491 43.761807,16.7187429 43.761807,17.4241947 L43.761807,35.3169587 C43.761807,36.0217444 43.3863323,36.6739043 42.7769335,37.0262972 M52.670193,26.3978888 C52.670193,11.4754835 40.3180728,-0.554502484 25.3037373,0.0197180124 C11.6975981,0.540646584 0.463927215,11.866513 0.0146867089,25.5072475 C-0.310281646,35.376246 4.83604747,43.9988795 12.5807943,48.7938205 L33.4638323,60.8731016 L41.8279462,56.017541 L34.2526614,51.6456047 C44.969307,48.2848826 52.670193,38.410555 52.670193,26.3978888" id="Fill-1"></path>
                        <path d="M61.4869367,51.4251759 C61.5527278,51.4251759 86.0748797,51.4258421 86.0748797,51.4258421 L86.0748797,16.0613203 L78.9229177,16.0613203 L78.9229177,44.181471 L63.9039304,44.181471 L63.9212089,16.0613203 L56.7692468,16.0613203 L56.7692468,48.5101076 C56.7692468,48.7699057 56.8735823,48.8338561 56.9998481,48.9104632 C57.1267785,48.9864042 61.1506709,51.3085998 61.2576646,51.3638902 C61.3639937,51.4191806 61.4211456,51.4251759 61.4869367,51.4251759" id="Fill-3"></path>
                        <path d="M150.115509,16.123472 L154.381965,18.5822283 C154.519528,18.6615 154.603927,18.8080528 154.603927,18.9665963 L154.603927,51.4260419 L147.451965,51.4260419 L147.469244,23.2332811 L132.450256,23.2332811 L132.450256,51.4260419 L125.29763,51.4260419 L125.29763,16.060854 C125.29763,16.060854 149.753326,16.0621863 149.886237,16.0621863 C150.019149,16.0621863 150.115509,16.123472 150.115509,16.123472" id="Fill-5"></path>
                        <path d="M194.806168,0.0640169255 L201.95813,0.0640169255 L201.95813,44.1804051 L209.568636,44.1804051 L209.568636,51.4261085 C209.568636,51.4261085 199.589649,51.4247762 199.523858,51.4247762 C199.458731,51.4247762 199.401579,51.4161163 199.294585,51.3608259 C199.187592,51.3055356 195.163699,48.9833399 195.037434,48.9073989 C194.910503,48.8314579 194.806168,48.7668415 194.806168,48.5070433 L194.806168,0.0640169255 Z" id="Fill-7"></path>
                        <path d="M115.337117,16.1347966 C115.337117,16.1347966 119.499902,18.5389286 119.596263,18.5962174 C119.692623,18.6541724 119.819554,18.8253727 119.819554,18.996573 L119.819554,51.4260419 L96.2151551,51.4260419 C96.1493639,51.4260419 96.092212,51.4193804 95.9858829,51.3640901 C95.8788892,51.3087997 91.8549968,48.986604 91.7280665,48.910663 C91.6018006,48.834722 91.4974652,48.7707717 91.4974652,48.5103075 L91.4974652,31.7073634 C91.4974652,31.5747997 91.559269,31.4069301 91.7234146,31.3136693 C91.8868956,31.2204084 95.9832247,28.8522484 96.0483513,28.8149441 C96.1128133,28.7776398 96.1766108,28.7529922 96.2796171,28.7529922 C96.3826234,28.7529922 112.666927,28.7516599 112.666927,28.7516599 L112.666927,23.2352795 L96.0603133,23.2326149 L96.0603133,16.0648509 L115.107845,16.0648509 C115.229459,16.0648509 115.337117,16.1347966 115.337117,16.1347966 L115.337117,16.1347966 Z M112.666927,44.1830031 L112.666927,35.7895248 L98.6574019,35.7941879 L98.6574019,44.1830031 L112.666927,44.1830031 Z" id="Fill-9"></path>
                        <path d="M164.796703,51.4261752 C164.730911,51.4261752 164.673759,51.4175152 164.56743,51.3622248 C164.460437,51.3069345 160.436544,48.9847388 160.309614,48.9087978 C160.183348,48.8328568 160.079013,48.7682404 160.079013,48.5084422 C160.079013,48.5084422 160.080342,18.9933755 160.080342,18.9660634 C160.080342,18.8354981 160.169392,18.6589686 160.303633,18.5810292 C160.437209,18.5037559 164.494994,16.1622419 164.571418,16.1196084 C164.648506,16.077641 164.721608,16.0589888 164.800025,16.0589888 C164.879108,16.0589888 182.172209,16.0629857 182.172209,16.0629857 L182.172209,0.0640835404 L189.400595,0.0640835404 L189.400595,51.4261752 L164.796703,51.4261752 Z M167.300753,44.1811379 L182.172209,44.1811379 L182.172209,23.2307497 L167.300753,23.2307497 L167.300753,44.1811379 Z" id="Fill-11"></path>
                    </g>
                </g>
            </g>
        </g>
    </g>
</svg>